<mxfile host="app.diagrams.net" modified="2023-06-14T22:13:44.346Z" agent="Mozilla/5.0 (Windows NT 10.0; Win64; x64) AppleWebKit/537.36 (KHTML, like Gecko) Chrome/114.0.0.0 Safari/537.36" etag="iEQhKR6Hqugh3L11x4k2" version="21.3.8" type="github">
  <diagram name="Page-1" id="yjCl68lv2DPgKz-xMHy2">
    <mxGraphModel dx="662" dy="385" grid="1" gridSize="10" guides="1" tooltips="1" connect="1" arrows="1" fold="1" page="1" pageScale="1" pageWidth="827" pageHeight="1169" math="0" shadow="0">
      <root>
        <mxCell id="0" />
        <mxCell id="1" parent="0" />
        <mxCell id="g2nOlyDXMaKxCycup5Qt-1" value="Impressora" style="swimlane;whiteSpace=wrap;html=1;" vertex="1" parent="1">
          <mxGeometry x="200" y="70" width="190" height="200" as="geometry" />
        </mxCell>
        <mxCell id="g2nOlyDXMaKxCycup5Qt-3" value="&lt;font style=&quot;font-size: 10px;&quot;&gt;+ verificarFolhas (&lt;b&gt;int&lt;/b&gt; temFolha)&lt;br&gt;+ verificarTinta (&lt;b style=&quot;border-color: var(--border-color);&quot;&gt;int&lt;/b&gt;&amp;nbsp;temTinta)&lt;br&gt;+ imprimeDoc (&lt;b style=&quot;border-color: var(--border-color);&quot;&gt;String&lt;/b&gt;&amp;nbsp;documento)&lt;br&gt;+ mostraStatus(&lt;b&gt;String&lt;/b&gt; Atual)&lt;br&gt;&lt;/font&gt;" style="text;html=1;align=left;verticalAlign=middle;resizable=0;points=[];autosize=1;strokeColor=none;fillColor=none;" vertex="1" parent="g2nOlyDXMaKxCycup5Qt-1">
          <mxGeometry x="20" y="123" width="180" height="70" as="geometry" />
        </mxCell>
        <mxCell id="g2nOlyDXMaKxCycup5Qt-5" value="" style="endArrow=none;html=1;rounded=0;" edge="1" parent="g2nOlyDXMaKxCycup5Qt-1">
          <mxGeometry width="50" height="50" relative="1" as="geometry">
            <mxPoint y="120" as="sourcePoint" />
            <mxPoint x="190" y="120" as="targetPoint" />
          </mxGeometry>
        </mxCell>
        <mxCell id="g2nOlyDXMaKxCycup5Qt-2" value="&lt;font style=&quot;font-size: 12px;&quot;&gt;- &lt;b&gt;String&lt;/b&gt; arquivoPB&lt;br&gt;- &lt;b&gt;String&lt;/b&gt; arquivoColor&lt;br&gt;- &lt;b&gt;Double&lt;/b&gt; nivelTinta&lt;br&gt;- &lt;b&gt;int&lt;/b&gt; erroImpressao&lt;br&gt;- &lt;b&gt;int&lt;/b&gt; statusImpressao&lt;br&gt;&lt;/font&gt;" style="text;html=1;align=left;verticalAlign=middle;resizable=0;points=[];autosize=1;strokeColor=none;fillColor=none;" vertex="1" parent="1">
          <mxGeometry x="215" y="98" width="140" height="90" as="geometry" />
        </mxCell>
        <mxCell id="g2nOlyDXMaKxCycup5Qt-20" style="edgeStyle=orthogonalEdgeStyle;rounded=0;orthogonalLoop=1;jettySize=auto;html=1;entryX=0.5;entryY=1;entryDx=0;entryDy=0;endArrow=block;endFill=0;" edge="1" parent="1" source="g2nOlyDXMaKxCycup5Qt-6" target="g2nOlyDXMaKxCycup5Qt-1">
          <mxGeometry relative="1" as="geometry" />
        </mxCell>
        <mxCell id="g2nOlyDXMaKxCycup5Qt-6" value="Buffer" style="swimlane;whiteSpace=wrap;html=1;" vertex="1" parent="1">
          <mxGeometry x="200" y="320" width="190" height="130" as="geometry" />
        </mxCell>
        <mxCell id="g2nOlyDXMaKxCycup5Qt-7" value="&lt;font style=&quot;font-size: 10px;&quot;&gt;+ listaArquivos (&lt;b&gt;String&lt;/b&gt; nomeArquivo)&lt;br&gt;+ mostraStatus(&lt;b&gt;String&lt;/b&gt; Atual)&lt;br&gt;&lt;/font&gt;" style="text;html=1;align=left;verticalAlign=middle;resizable=0;points=[];autosize=1;strokeColor=none;fillColor=none;" vertex="1" parent="g2nOlyDXMaKxCycup5Qt-6">
          <mxGeometry x="10" y="86" width="190" height="40" as="geometry" />
        </mxCell>
        <mxCell id="g2nOlyDXMaKxCycup5Qt-8" value="" style="endArrow=none;html=1;rounded=0;" edge="1" parent="g2nOlyDXMaKxCycup5Qt-6">
          <mxGeometry width="50" height="50" relative="1" as="geometry">
            <mxPoint y="81" as="sourcePoint" />
            <mxPoint x="190" y="81" as="targetPoint" />
          </mxGeometry>
        </mxCell>
        <mxCell id="g2nOlyDXMaKxCycup5Qt-9" value="&lt;font style=&quot;font-size: 12px;&quot;&gt;- &lt;b&gt;String&lt;/b&gt; tipoArquivo&lt;br&gt;- &lt;b&gt;int&lt;/b&gt; erroImpressao&lt;br&gt;- &lt;b&gt;int&lt;/b&gt; statusImpressao&lt;br&gt;&lt;/font&gt;" style="text;html=1;align=left;verticalAlign=middle;resizable=0;points=[];autosize=1;strokeColor=none;fillColor=none;" vertex="1" parent="1">
          <mxGeometry x="215" y="342" width="140" height="60" as="geometry" />
        </mxCell>
        <mxCell id="g2nOlyDXMaKxCycup5Qt-16" style="edgeStyle=orthogonalEdgeStyle;rounded=0;orthogonalLoop=1;jettySize=auto;html=1;entryX=1;entryY=0.5;entryDx=0;entryDy=0;dashed=1;endArrow=blockThin;endFill=1;" edge="1" parent="1" source="g2nOlyDXMaKxCycup5Qt-10" target="g2nOlyDXMaKxCycup5Qt-1">
          <mxGeometry relative="1" as="geometry" />
        </mxCell>
        <mxCell id="g2nOlyDXMaKxCycup5Qt-19" style="edgeStyle=orthogonalEdgeStyle;rounded=0;orthogonalLoop=1;jettySize=auto;html=1;endArrow=open;endFill=0;dashed=1;dashPattern=8 8;" edge="1" parent="1" source="g2nOlyDXMaKxCycup5Qt-10">
          <mxGeometry relative="1" as="geometry">
            <mxPoint x="390" y="400" as="targetPoint" />
            <Array as="points">
              <mxPoint x="575" y="320" />
              <mxPoint x="441" y="320" />
              <mxPoint x="441" y="400" />
            </Array>
          </mxGeometry>
        </mxCell>
        <mxCell id="g2nOlyDXMaKxCycup5Qt-10" value="Computador" style="swimlane;whiteSpace=wrap;html=1;" vertex="1" parent="1">
          <mxGeometry x="480" y="115" width="190" height="110" as="geometry" />
        </mxCell>
        <mxCell id="g2nOlyDXMaKxCycup5Qt-11" value="&lt;font style=&quot;font-size: 10px;&quot;&gt;+ mandaImprimir (&lt;b&gt;String&lt;/b&gt; nomeArquivo)&lt;br&gt;+ mostraStatus(&lt;b&gt;String&lt;/b&gt; Atual)&lt;br&gt;&lt;/font&gt;" style="text;html=1;align=left;verticalAlign=middle;resizable=0;points=[];autosize=1;strokeColor=none;fillColor=none;" vertex="1" parent="g2nOlyDXMaKxCycup5Qt-10">
          <mxGeometry x="9" y="66" width="200" height="40" as="geometry" />
        </mxCell>
        <mxCell id="g2nOlyDXMaKxCycup5Qt-12" value="" style="endArrow=none;html=1;rounded=0;" edge="1" parent="g2nOlyDXMaKxCycup5Qt-10">
          <mxGeometry width="50" height="50" relative="1" as="geometry">
            <mxPoint y="63" as="sourcePoint" />
            <mxPoint x="190" y="63" as="targetPoint" />
          </mxGeometry>
        </mxCell>
        <mxCell id="g2nOlyDXMaKxCycup5Qt-13" value="&lt;font style=&quot;font-size: 12px;&quot;&gt;- &lt;b&gt;String&lt;/b&gt; tipoArquivo&lt;br&gt;- &lt;b&gt;int&lt;/b&gt; statusImpressao&lt;br&gt;&lt;/font&gt;" style="text;html=1;align=left;verticalAlign=middle;resizable=0;points=[];autosize=1;strokeColor=none;fillColor=none;" vertex="1" parent="1">
          <mxGeometry x="487" y="138" width="140" height="40" as="geometry" />
        </mxCell>
      </root>
    </mxGraphModel>
  </diagram>
</mxfile>
